<svg xmlns="http://www.w3.org/2000/svg" viewBox="0 0 1600 1000" role="img" aria-labelledby="title">
  <title id="title">KareerTrack application dashboard preview</title>
  <rect width="1600" height="1000" fill="#eef3f8"/>
  <rect x="54" y="48" width="1492" height="904" rx="38" fill="#fff" stroke="#dbe3eb" stroke-width="3"/>
  <rect x="54" y="48" width="256" height="904" rx="38" fill="#111827"/>
  <circle cx="112" cy="112" r="26" fill="#72a8ef"/>
  <text x="154" y="126" fill="#fff" font-family="Arial,sans-serif" font-size="34" font-weight="700">KareerTrack</text>
  <g fill="#9ca3af" font-family="Arial,sans-serif" font-size="24">
    <text x="98" y="226">Today</text><text x="98" y="284">Applications</text>
    <text x="98" y="342">Pipeline</text><text x="98" y="400">Interviews</text>
    <text x="98" y="458">Follow-up</text><text x="98" y="516">Documents</text>
  </g>
  <text x="370" y="128" fill="#111827" font-family="Georgia,serif" font-size="58">Your application workspace.</text>
  <text x="372" y="174" fill="#6b7280" font-family="Arial,sans-serif" font-size="22">Track every role, deadline, interview, and next action.</text>
  <g font-family="Arial,sans-serif">
    <rect x="370" y="228" width="330" height="138" rx="24" fill="#eef6ff"/>
    <text x="400" y="270" fill="#6b7280" font-size="18">ACTIVE APPLICATIONS</text>
    <text x="400" y="332" fill="#111827" font-size="52" font-weight="700">24</text>
    <rect x="724" y="228" width="330" height="138" rx="24" fill="#effaf4"/>
    <text x="754" y="270" fill="#6b7280" font-size="18">INTERVIEWS</text>
    <text x="754" y="332" fill="#111827" font-size="52" font-weight="700">06</text>
    <rect x="1078" y="228" width="404" height="138" rx="24" fill="#fff7e8"/>
    <text x="1108" y="270" fill="#6b7280" font-size="18">FOLLOW-UP DUE</text>
    <text x="1108" y="332" fill="#111827" font-size="52" font-weight="700">04</text>
  </g>
  <rect x="370" y="404" width="1112" height="466" rx="28" fill="#f9fafb" stroke="#e5e7eb" stroke-width="2"/>
  <text x="404" y="456" fill="#111827" font-family="Arial,sans-serif" font-size="25" font-weight="700">Application pipeline</text>
  <g font-family="Arial,sans-serif">
    <g transform="translate(404 500)">
      <rect width="240" height="314" rx="20" fill="#eef3f8"/><text x="22" y="38" fill="#4b5563" font-size="18" font-weight="700">SAVED · 5</text>
      <rect x="16" y="64" width="208" height="96" rx="15" fill="#fff"/><text x="34" y="98" fill="#111827" font-size="19" font-weight="700">Tokopedia</text><text x="34" y="130" fill="#6b7280" font-size="16">Product Designer</text>
      <rect x="16" y="176" width="208" height="96" rx="15" fill="#fff"/><text x="34" y="210" fill="#111827" font-size="19" font-weight="700">Traveloka</text><text x="34" y="242" fill="#6b7280" font-size="16">UX Researcher</text>
    </g>
    <g transform="translate(664 500)">
      <rect width="240" height="314" rx="20" fill="#eaf2ff"/><text x="22" y="38" fill="#3568a8" font-size="18" font-weight="700">APPLIED · 9</text>
      <rect x="16" y="64" width="208" height="96" rx="15" fill="#fff"/><text x="34" y="98" fill="#111827" font-size="19" font-weight="700">Shopee</text><text x="34" y="130" fill="#6b7280" font-size="16">UI Designer</text>
      <rect x="16" y="176" width="208" height="96" rx="15" fill="#fff"/><text x="34" y="210" fill="#111827" font-size="19" font-weight="700">Gojek</text><text x="34" y="242" fill="#6b7280" font-size="16">Product Intern</text>
    </g>
    <g transform="translate(924 500)">
      <rect width="240" height="314" rx="20" fill="#fff5df"/><text x="22" y="38" fill="#9a6d13" font-size="18" font-weight="700">INTERVIEW · 6</text>
      <rect x="16" y="64" width="208" height="96" rx="15" fill="#fff"/><text x="34" y="98" fill="#111827" font-size="19" font-weight="700">Bank Mandiri</text><text x="34" y="130" fill="#6b7280" font-size="16">HR · Tomorrow</text>
    </g>
    <g transform="translate(1184 500)">
      <rect width="240" height="314" rx="20" fill="#ebf8ef"/><text x="22" y="38" fill="#317149" font-size="18" font-weight="700">OFFER · 2</text>
      <rect x="16" y="64" width="208" height="96" rx="15" fill="#fff"/><text x="34" y="98" fill="#111827" font-size="19" font-weight="700">Telkom</text><text x="34" y="130" fill="#6b7280" font-size="16">Product Associate</text>
    </g>
  </g>
</svg>
