<svg xmlns="http://www.w3.org/2000/svg" viewBox="0 0 1600 1000" role="img" aria-labelledby="title">
  <title id="title">KelasKampus learning dashboard preview</title>
  <defs>
    <linearGradient id="bg" x1="0" x2="1"><stop stop-color="#eaf7ff"/><stop offset="1" stop-color="#f4f1ff"/></linearGradient>
    <linearGradient id="accent" x1="0" x2="1"><stop stop-color="#0ea5e9"/><stop offset="1" stop-color="#6366f1"/></linearGradient>
  </defs>
  <rect width="1600" height="1000" fill="url(#bg)"/>
  <rect x="58" y="48" width="1484" height="904" rx="38" fill="#fff" stroke="#dcebf4" stroke-width="3"/>
  <rect x="58" y="48" width="1484" height="86" rx="38" fill="#fff"/>
  <circle cx="112" cy="91" r="23" fill="url(#accent)"/>
  <text x="150" y="104" fill="#0f172a" font-family="Arial,sans-serif" font-size="34" font-weight="800">KelasKampus</text>
  <g fill="#64748b" font-family="Arial,sans-serif" font-size="20"><text x="1030" y="100">Dashboard</text><text x="1160" y="100">Tryout</text><text x="1260" y="100">Jadwal</text><text x="1360" y="100">Profile</text></g>
  <text x="108" y="230" fill="#0f172a" font-family="Arial,sans-serif" font-size="54" font-weight="800">Semangat pagi, Sobat!</text>
  <text x="108" y="276" fill="#64748b" font-family="Arial,sans-serif" font-size="22">Konsistensi kecil membawa hasil besar menuju PTN impian.</text>
  <rect x="108" y="324" width="820" height="226" rx="34" fill="#f8fafc" stroke="#e8edf2" stroke-width="2"/>
  <text x="148" y="378" fill="#64748b" font-family="Arial,sans-serif" font-size="18" font-weight="700">DAILY PROGRESS</text>
  <text x="148" y="450" fill="#0f172a" font-family="Arial,sans-serif" font-size="54" font-weight="800">76%</text>
  <rect x="148" y="480" width="620" height="16" rx="8" fill="#e2e8f0"/>
  <rect x="148" y="480" width="471" height="16" rx="8" fill="url(#accent)"/>
  <circle cx="820" cy="436" r="67" fill="none" stroke="#dbeafe" stroke-width="18"/>
  <path d="M820 369a67 67 0 1 1-55 105" fill="none" stroke="#0ea5e9" stroke-width="18" stroke-linecap="round"/>
  <rect x="958" y="324" width="476" height="226" rx="34" fill="#111827"/>
  <text x="998" y="378" fill="#94a3b8" font-family="Arial,sans-serif" font-size="18" font-weight="700">TARGET UTAMA</text>
  <text x="998" y="434" fill="#fff" font-family="Arial,sans-serif" font-size="38" font-weight="800">STEI — ITB</text>
  <text x="998" y="486" fill="#7dd3fc" font-family="Arial,sans-serif" font-size="22">645 / 680 · Butuh +35 poin</text>
  <text x="108" y="630" fill="#0f172a" font-family="Arial,sans-serif" font-size="30" font-weight="800">Modul belajar</text>
  <g font-family="Arial,sans-serif">
    <g transform="translate(108 674)"><rect width="294" height="194" rx="26" fill="#fff1f2" stroke="#ffe4e6"/><circle cx="50" cy="52" r="24" fill="#fb7185"/><text x="30" y="124" fill="#0f172a" font-size="23" font-weight="700">Kuantitatif</text><text x="30" y="157" fill="#64748b" font-size="17">12 Bab · 45 Video</text></g>
    <g transform="translate(424 674)"><rect width="294" height="194" rx="26" fill="#eff6ff" stroke="#dbeafe"/><circle cx="50" cy="52" r="24" fill="#38bdf8"/><text x="30" y="124" fill="#0f172a" font-size="23" font-weight="700">Penalaran Umum</text><text x="30" y="157" fill="#64748b" font-size="17">15 Bab · 50 Video</text></g>
    <g transform="translate(740 674)"><rect width="294" height="194" rx="26" fill="#f5f3ff" stroke="#ede9fe"/><circle cx="50" cy="52" r="24" fill="#8b5cf6"/><text x="30" y="124" fill="#0f172a" font-size="23" font-weight="700">Literasi</text><text x="30" y="157" fill="#64748b" font-size="17">20 Bab · Tryout</text></g>
    <g transform="translate(1056 674)"><rect width="378" height="194" rx="26" fill="#ecfdf5" stroke="#d1fae5"/><text x="34" y="60" fill="#047857" font-size="18" font-weight="700">NEXT SCHEDULE</text><text x="34" y="112" fill="#0f172a" font-size="28" font-weight="800">Tryout Nasional</text><text x="34" y="150" fill="#64748b" font-size="17">Minggu · 09.00 WIB</text></g>
  </g>
</svg>
