<svg width="184" height="40" viewBox="0 0 184 40" fill="none" xmlns="http://www.w3.org/2000/svg">
  <rect x="1" y="1" width="38" height="38" rx="13" fill="#1D1D1B"/>
  <path d="M11 27V13L20 22L29 13V27" stroke="#F8F5F1" stroke-width="3.2" stroke-linecap="round" stroke-linejoin="round"/>
  <path d="M47 12H53.6L64.4 27.4V12H70V28H63.6L52.6 12.4V28H47V12Z" fill="#1D1D1B"/>
  <path d="M75 12H89.6V16.2H80.4V18.2H88.8V22.1H80.4V23.8H89.9V28H75V12Z" fill="#1D1D1B"/>
  <path d="M92.2 12H98.8L102.8 17.1L106.7 12H113.3L106.3 19.8L113.8 28H107.1L102.7 22.4L98.3 28H91.7L99.2 19.7L92.2 12Z" fill="#1D1D1B"/>
  <path d="M115.8 12H121.5V21.6C121.5 23.2 122.4 24 124.2 24C126 24 126.9 23.2 126.9 21.6V12H132.6V22C132.6 26.2 129.8 28.4 124.2 28.4C118.6 28.4 115.8 26.2 115.8 22V12Z" fill="#1D1D1B"/>
  <path d="M135.3 22.7H140.8C141 24 141.9 24.6 143.5 24.6C145 24.6 145.8 24.2 145.8 23.4C145.8 22.6 145.1 22.3 142.6 21.8C137.8 20.9 135.8 19.5 135.8 16.7C135.8 13.6 138.6 11.6 143.4 11.6C148.2 11.6 150.8 13.5 151 16.9H145.7C145.5 15.8 144.7 15.3 143.3 15.3C142 15.3 141.3 15.7 141.3 16.4C141.3 17.1 142 17.4 144.4 17.9C149.3 18.8 151.4 20.3 151.4 23.1C151.4 26.5 148.5 28.4 143.4 28.4C138.2 28.4 135.4 26.4 135.3 22.7Z" fill="#1D1D1B"/>
  <path d="M158 12.5H160.8V27.5H158V12.5Z" fill="#7B756D"/>
  <path d="M166 13H175C179.7 13 182.5 15.4 182.5 19.2C182.5 23 179.7 25.4 175 25.4H170V28H166V13ZM170 16.6V21.8H174.5C177 21.8 178.3 20.9 178.3 19.2C178.3 17.5 177 16.6 174.5 16.6H170Z" fill="#7B756D"/>
</svg>
