<svg xmlns="http://www.w3.org/2000/svg" viewBox="0 0 425.595 89.319"><path d="M15.621 67.818c-3.555 0-6.447-.666-8.67-2.001-2.22-1.332-3.87-2.982-4.95-4.95C.921 58.833.255 56.862 0 54.957l8.478-2.379c.318 2.097 1.017 3.873 2.094 5.334 1.143 1.398 2.796 2.097 4.953 2.097 2.286 0 3.906-.762 4.86-2.286 1.017-1.59 1.524-3.492 1.524-5.715V7.812H19.62c-3.684 0-6.48 1.08-8.382 3.237-1.905 2.16-2.859 5.208-2.859 9.144v11.049H0V20.766C0 14.607 1.557 9.621 4.668 5.811 7.779 1.938 12.606 0 19.146 0h11.145v51.435c0 2.73-.414 5.364-1.239 7.905a12.204 12.204 0 0 1-4.476 6.096c-2.097 1.59-5.082 2.382-8.955 2.382zM42.789 66.675V21.147h7.809v7.524c1.08-2.793 2.859-4.92 5.334-6.381 2.541-1.524 5.367-2.286 8.478-2.286 4.89 0 8.637 1.428 11.238 4.284 2.604 2.793 3.906 6.603 3.906 11.43v30.957h-7.809V36.387c0-2.985-.762-5.241-2.286-6.765-1.524-1.587-3.684-2.379-6.48-2.379-1.776 0-3.396.381-4.857 1.14a14.232 14.232 0 0 0-3.714 2.67c-1.335 1.395-2.319 2.793-2.952 4.191-.57 1.395-.858 3.3-.858 5.715v25.716zM107.91 67.818c-5.331 0-9.585-1.206-12.762-3.618-3.174-2.415-5.175-5.46-6-9.144l7.431-2.955c.699 2.67 1.998 4.764 3.903 6.288 1.971 1.461 4.35 2.19 7.146 2.19 3.174 0 5.649-.636 7.428-1.905 1.779-1.269 2.667-2.922 2.667-4.953s-.825-3.525-2.475-4.476c-1.59-.951-3.651-1.62-6.192-2.001l-5.238-.762c-3.81-.57-6.984-1.938-9.525-4.095-2.478-2.22-3.717-5.301-3.717-9.24 0-2.667.729-4.983 2.19-6.954 1.461-1.968 3.429-3.492 5.907-4.572 2.541-1.08 5.367-1.62 8.478-1.62 4.38 0 8.031.891 10.953 2.67 2.985 1.779 5.079 4.38 6.288 7.809l-6.669 3.333c-.699-2.349-1.971-4.062-3.81-5.142s-4.095-1.62-6.762-1.62c-2.541 0-4.701.54-6.48 1.62-1.776 1.08-2.664 2.637-2.664 4.668 0 1.905.729 3.33 2.19 4.284 1.524.891 3.651 1.557 6.381 2.001l5.43.858a23.244 23.244 0 0 1 6.57 2.001 11.772 11.772 0 0 1 4.86 4.095c1.269 1.713 1.905 3.936 1.905 6.669 0 4.443-1.557 8.001-4.668 10.668-3.048 2.601-7.302 3.903-12.762 3.903zM149.295 66.675c-3.873 0-6.732-1.11-8.574-3.333-1.779-2.22-2.667-5.271-2.667-9.144V28.194h-8.571v-7.05h8.571V8.574l7.812-1.716v14.289h12.858v7.047h-12.858v27.051c0 1.335.381 2.382 1.14 3.144.765.699 1.749 1.05 2.955 1.05h9.621l-1.143 7.236zM228.156 20.357c-4.065 0-7.682.953-10.86 2.858-3.173 1.842-5.682 4.475-7.52 7.904-1.78 3.43-2.67 7.465-2.67 12.1v2.093c0 4.51.76 8.415 2.285 11.715 1.524 3.24 3.618 5.717 6.285 7.43 2.73 1.713 5.811 2.572 9.24 2.572a11.004 11.004 0 0 0 5.525-1.523 26.208 26.208 0 0 0-5.81 5.144c-1.65 2.094-2.475 4.509-2.475 7.239 0 3.3 1.112 6.03 3.332 8.19 2.286 2.159 5.462 3.239 9.526 3.24 4.829-.001 8.256-1.525 10.287-4.573 2.03-2.985 3.049-6.701 3.049-11.144V40.74c0-6.285-1.78-11.238-5.334-14.86-3.555-3.68-8.509-5.523-14.86-5.523zm-.285 7.24c4.125 0 7.266 1.239 9.426 3.714 2.16 2.412 3.24 5.682 3.24 9.81v4.287c0 1.968-.318 3.744-.951 5.334-.636 1.524-1.684 3.078-3.145 4.668a14.415 14.415 0 0 1-4.283 3.24c-1.59.76-3.21 1.14-4.86 1.14a14.481 14.481 0 0 1-6.193-1.333c-1.839-.951-3.331-2.508-4.474-4.668-1.143-2.157-1.713-5.045-1.713-8.666v-1.717c0-3.62.631-6.571 1.9-8.857 1.272-2.35 2.894-4.095 4.862-5.238 1.968-1.143 4.031-1.713 6.191-1.713zm12.666 34.575v12.572c0 2.157-.38 3.903-1.142 5.238-.762 1.398-2.16 2.098-4.192 2.098-1.587 0-2.856-.506-3.81-1.523-.951-.954-1.428-2.16-1.428-3.621a10.092 10.092 0 0 1 1.047-4.573c.699-1.395 1.812-2.886 3.336-4.476a129.102 129.102 0 0 1 6.19-5.715zM358.92 67.029V21.501h7.809v6.285c1.206-2.475 2.856-4.317 4.953-5.523a13.161 13.161 0 0 1 6.954-1.905c3.048 0 5.556.729 7.524 2.19a10.776 10.776 0 0 1 4.095 5.619c1.335-2.667 3.144-4.635 5.43-5.904a15.051 15.051 0 0 1 7.431-1.905c4.701 0 8.256 1.332 10.668 3.999 2.412 2.604 3.618 6.351 3.618 11.241v20.67c0 2.349 1.143 3.522 3.429 3.522h4.764l-1.143 7.239H419.4c-3.366 0-5.844-.951-7.431-2.856-1.587-1.905-2.379-4.572-2.379-8.001V35.88c0-2.793-.699-4.86-2.097-6.192-1.395-1.395-3.27-2.094-5.619-2.094-2.73 0-5.079 1.11-7.05 3.33a16.116 16.116 0 0 0-1.905 3.051c-.57 1.206-.447 2.835-.855 4.761v28.29h-7.812V35.883c0-2.793-.699-4.86-2.094-6.192-1.398-1.395-3.27-2.094-5.622-2.094-2.73 0-5.079 1.11-7.05 3.33a16.02 16.02 0 0 0-1.902 3.051c-.57 1.206-.858 2.793-.858 4.761v28.29zM182.395 20.004c-5.02 0-9.116 1.301-12.29 3.902-3.11 2.541-5.047 5.652-5.806 9.336l7.138 2.002c.7-2.54 2.002-4.508 3.907-5.906 1.905-1.395 4.258-2.096 7.05-2.096 2.794 0 5.113.637 6.952 1.906 1.905 1.27 2.857 3.112 2.857 5.524 0 1.143-.287 2.063-.857 2.762-.573.699-1.556 1.143-2.951 1.332l-11.243 1.523c-4.635.636-8.125 2.193-10.474 4.668-2.35 2.415-3.526 5.493-3.526 9.24 0 4.191 1.399 7.524 4.192 10.002 2.793 2.412 6.412 3.62 10.855 3.62h.004c3.618 0 6.667-.89 9.145-2.669 2.475-1.842 4.19-4.316 5.14-7.427v8.953h7.526v-30.29c0-5.333-1.526-9.398-4.57-12.19-3.052-2.794-7.4-4.192-13.05-4.192zm9.906 23.904v2.67c0 2.475-.541 4.793-1.621 6.953a13.452 13.452 0 0 1-4.668 5.143c-1.968 1.269-4.413 1.904-7.332 1.904h-.002c-2.35 0-4.221-.572-5.62-1.715-1.394-1.206-2.093-2.793-2.093-4.761 0-4.383 2.442-6.86 7.332-7.43l8.572-.955a16.47 16.47 0 0 0 3.145-.57 7.8 7.8 0 0 0 2.287-1.239z" font-family="Instagram Sans Headline" font-size="6.35" font-weight="400" letter-spacing="0" style="line-height:1.25;-inkscape-font-specification:'Instagram Sans Headline'" word-spacing="0"/><path fill="currentColor" d="M341.385 55.221q0 2.01 1.098 3.21 1.101 1.194 3.204 1.194h5.169l-.96 7.458h-6.12q-4.401 0-6.936-2.484-2.535-2.49-3.015-6.51-1.437 4.692-5.166 7.416-3.732 2.73-9.186 2.73-6.696 0-10.905-3.684-4.209-3.681-4.209-9.999 0-5.643 3.54-9.327t10.524-4.641l11.289-1.53q3.924-.576 3.924-4.113 0-3.732-3.495-5.598-3.492-1.863-10.188-1.863-7.272 0-12.438 3.729-5.166 3.732-8.706 12.918l-3.828 9.945q-1.911 4.977-3.921 7.992-2.01 3.012-4.83 4.353-2.826 1.338-7.227 1.338-6.507 0-10.281-4.734-3.78-4.737-3.78-12.39 0-6.792 2.868-12.15 2.871-5.358 6.984-9.57-2.01 2.01-4.929 2.871-2.913.858-5.688.858-3.159 0-6.84-.903-3.684-.909-7.227-4.068l4.305-6.984q2.202 1.722 5.121 3.012 2.916 1.293 6.747 1.293 3.921 0 6.936-1.242 3.009-1.245 5.31-3.54l5.928 6.024q-2.58 2.487-5.259 6.078-2.682 3.588-4.545 7.89-1.869 4.308-1.869 9.186 0 5.07 1.917 7.797 1.911 2.73 5.166 2.73 2.868 0 4.638-1.869 1.77-1.866 3.207-5.79l3.441-9.375q3.255-8.895 7.752-13.821 4.494-4.929 9.903-6.888 5.4-1.965 11.334-1.965 7.656 0 12.345 2.25 4.686 2.25 6.792 5.979 2.106 3.732 2.106 8.229zm-21.432 5.739q4.401 0 7.416-1.956 3.012-1.965 4.638-5.169 1.629-3.204 1.629-6.936V44.22q-.96.768-2.25 1.2-1.29.429-3.204.618l-8.613.96q-7.365.858-7.365 7.458 0 2.967 2.103 4.737 2.106 1.77 5.646 1.77z"/></svg>